<svg width="56" height="56" viewBox="0 0 56 56" fill="none" xmlns="http://www.w3.org/2000/svg">
<path d="M2.94629 15.8113C13.4757 -2.49599 36.964 -5.42095 52.9316 9.74487C60.3366 18.7358 53.51 22.2027 38.8154 23.3943C34.7657 16.678 24.4675 18.0858 22.1533 24.1521C12.6653 25.452 11.0454 28.1602 14.9795 30.0017C21.112 32.2766 33.8396 32.6011 39.625 30.8679L39.1621 31.8435C55.5926 33.7934 61.0309 38.6682 50.8486 48.3093C43.9063 53.0756 40.0877 55.2415 31.9883 55.9998C20.9963 55.9997 12.8011 53.0574 5.37598 44.0847C-0.525077 35.6352 -1.91337 26.3189 2.94629 15.8113ZM32.0518 47.1218C31.5405 47.1218 31.126 47.5104 31.126 47.989C31.1261 48.4675 31.5406 48.8552 32.0518 48.8552C32.5628 48.8551 32.9774 48.4674 32.9775 47.989C32.9775 47.5105 32.5628 47.122 32.0518 47.1218ZM16.8936 42.3562C16.6433 43.3582 16.4158 43.8331 15.7363 43.8718C16.3284 44.1531 16.6535 44.2166 16.8936 45.1726C17.1219 44.3274 17.3527 43.963 18.2822 43.8718C17.4319 43.5899 17.1328 43.2577 16.8936 42.3562ZM42.8115 41.1638C42.5859 42.2922 42.3475 42.8122 41.1924 43.0056C42.2533 43.3164 42.6146 43.7202 42.8115 44.8474C43.1206 43.523 43.5345 43.1741 44.5479 43.0056C43.4956 42.8578 43.1037 42.4724 42.8115 41.1638ZM27.4229 39.7566C27.0395 39.7567 26.7285 40.0481 26.7285 40.407C26.7286 40.7658 27.0396 41.0563 27.4229 41.0564C27.8062 41.0564 28.1171 40.7659 28.1172 40.407C28.1172 40.048 27.8063 39.7566 27.4229 39.7566ZM10.7607 36.9402C10.3774 36.9402 10.0666 37.2308 10.0664 37.5896C10.0664 37.9486 10.3773 38.24 10.7607 38.24C11.1441 38.24 11.4551 37.9485 11.4551 37.5896C11.4549 37.2308 11.144 36.9402 10.7607 36.9402ZM29.9141 36.3425C34.8906 36.4503 38.2467 32.6597 37.2031 33.2019H22.8555C21.816 33.2018 25.5173 36.3424 29.9141 36.3425ZM19.4385 34.5554C19.1192 34.5556 18.8604 34.7984 18.8604 35.0974C18.8604 35.3964 19.1192 35.6392 19.4385 35.6394C19.758 35.6394 20.0176 35.3965 20.0176 35.0974C20.0175 34.7983 19.758 34.5554 19.4385 34.5554ZM5.90137 28.2732C5.72566 29.2129 5.48871 29.5719 4.62891 29.6814C5.5256 29.9889 5.8047 30.3037 5.90137 31.0896C6.07656 30.2992 6.34788 29.9849 7.17383 29.6814C6.30761 29.4083 6.08531 29.0578 5.90137 28.2732ZM17.7031 20.6902C17.5642 21.6257 17.3447 21.976 16.5459 22.0984C17.3387 22.3135 17.602 22.5693 17.7031 23.2898C17.9837 22.5581 18.2588 22.2912 18.9766 22.0984C18.0862 22.0094 17.8815 21.6137 17.7031 20.6902ZM40.6133 16.2488C40.4116 17.4315 40.0712 17.8936 38.8779 18.199C40.057 18.4737 40.49 18.8296 40.6133 20.0408C40.9219 18.7645 41.2633 18.2748 42.4648 18.199C41.2338 17.8417 40.8207 17.4222 40.6133 16.2488ZM44.6631 18.3083C44.3437 18.3083 44.0841 18.5504 44.084 18.8494C44.084 19.1485 44.3436 19.3914 44.6631 19.3914C44.9825 19.3912 45.2412 19.1484 45.2412 18.8494C45.2411 18.5504 44.9824 18.3085 44.6631 18.3083ZM9.37207 17.0076C8.98873 17.0077 8.67773 17.2991 8.67773 17.658C8.67787 18.0168 8.98882 18.3073 9.37207 18.3074C9.75541 18.3074 10.0663 18.0168 10.0664 17.658C10.0664 17.299 9.75549 17.0076 9.37207 17.0076ZM30.4316 13.9744C29.7927 13.9744 29.2746 14.4593 29.2744 15.0574C29.2744 15.6556 29.7926 16.1414 30.4316 16.1414C31.0705 16.1412 31.5879 15.6555 31.5879 15.0574C31.5877 14.4594 31.0704 13.9746 30.4316 13.9744ZM22.7939 12.4578C22.4107 12.458 22.1006 12.7493 22.1006 13.1082C22.1008 13.4668 22.4108 13.7574 22.7939 13.7576C23.1772 13.7576 23.4881 13.467 23.4883 13.1082C23.4883 12.7492 23.1774 12.4578 22.7939 12.4578ZM47.5557 10.8328C47.4776 11.6505 47.2546 11.9605 46.3984 12.1326C47.2799 12.4518 47.638 12.7038 47.5557 13.5408C47.7207 12.8253 47.9143 12.4824 48.7129 12.1326C48.0941 11.8849 47.87 11.5541 47.5557 10.8328ZM38.1836 9.85815C37.8642 9.85825 37.6055 10.1011 37.6055 10.4001C37.6056 10.6991 37.8642 10.9411 38.1836 10.9412C38.503 10.9412 38.7626 10.6992 38.7627 10.4001C38.7627 10.101 38.5031 9.85815 38.1836 9.85815ZM29.1582 5.63257C28.8777 6.68017 28.5772 7.09439 27.6543 7.36597C28.6166 7.74508 29.0113 8.07282 29.1582 9.09937C29.3882 7.98736 29.7721 7.61074 30.8945 7.36597C29.8175 7.01701 29.4293 6.64213 29.1582 5.63257Z" fill="#EFEDE9"/>
<path d="M24.6307 23.7558C25.6721 22.8892 26.8292 23.1059 27.5234 24.2975C27.7549 22.0226 24.7465 22.2392 24.6307 23.7558Z" fill="#EFEDE9"/>
<path d="M27.9863 26.789C29.2664 27.0262 29.5882 27.3807 29.2591 28.5222C30.4161 27.7639 29.4905 26.139 27.9863 26.789Z" fill="#EFEDE9"/>
<path d="M32.1517 20.3977C33.0658 20.8036 33.4897 21.0929 34.1188 21.6976C34.531 21.09 32.6146 20.181 32.1517 20.3977Z" fill="#EFEDE9"/>
<path d="M33.7716 24.2974C36.0858 24.6224 36.6643 26.139 34.9287 27.5472C38.1685 27.0056 36.78 22.7808 33.7716 24.2974Z" fill="#EFEDE9"/>
<path d="M39.557 26.3556C43.7225 27.3306 43.3754 28.6305 39.557 29.6054V26.3556Z" fill="#EFEDE9"/>
<path d="M20.9281 26.3556C16.7627 27.3306 16.7627 28.6305 21.0438 29.6054L20.9281 26.3556Z" fill="#EFEDE9"/>
<path d="M27.0607 34.4802C29.6355 35.139 31.0814 35.1288 33.656 34.4802C31.9204 36.2134 27.8706 35.7801 27.0607 34.4802Z" fill="#EFEDE9"/>
</svg>
